<?xml version="1.0" encoding="UTF-8"?>
<svg id="Calque_2" data-name="Calque 2" xmlns="http://www.w3.org/2000/svg" xmlns:xlink="http://www.w3.org/1999/xlink" viewBox="0 0 198.28 81.02">
  <defs>
    <style>
      .cls-1 {
        fill: none;
      }

      .cls-2 {
        clip-path: url(#clippath);
      }

      .cls-3, .cls-4 {
        fill: #6b705d;
      }

      .cls-5 {
        fill: #a4a58d;
      }

      .cls-4 {
        font-family: Skia-Bold, Skia;
        font-size: 16.74px;
        font-variation-settings: 'wght' 1, 'wdth' 1;
        font-weight: 700;
      }
    </style>
    <clipPath id="clippath">
      <path class="cls-1" d="m15.18-2v49.4h136.11V-2H15.18Zm7.9,38.7c-1.45.02-2.71.12-3.74.32-.87.17-1.68.35-2.45.52-.11-.18-.22-.36-.31-.56l-.06-.16c-.31-1.11-.4-2.25-.27-3.39.05-.42.13-.84.25-1.26,1.52-.34,2.88-.58,3.9-.75.99-.16,2.01-.27,3.04-.34-1.07,1.21-1.24,1.91-1.24,2.21,0,.84-.02,2.12.88,3.4Zm96.16.71c-1.85-.65-3.36-1.23-4.49-1.74-.27-.12-.57-.26-.89-.4l-.35-.83c3.33-.91,6.01-1.6,8.37-2.19,1.34.7,2.87,1.53,4.57,2.47l.07.25c-2.48.84-4.95,1.67-7.28,2.44Z"/>
    </clipPath>
  </defs>
  <g id="Calque_3" data-name="Calque 3">
    <g>
      <path class="cls-5" d="m92.42,0s5.37,12.51,11.11,15c11.63,5.05,14.63,5.2,20.69,5.48,5.65.26,24.29-2.64,24.29-2.64l.78,1.59s-52.08,15.15-60.01,16.91c-7.92,1.75-43.76,9.88-54.64,8.99s-18.2-5.03-17.41-11.78,11.02-14.31,22.29-16.64c11.27-2.33,22.65-2.59,40.74.98,18.09,3.57,31.71,10.69,38.01,13.67s18.28,10.14,18.28,10.14c0,0-15.23-4.22-21.41-6.95-6.18-2.73-26.15-13.26-45.05-15.07-18.9-1.82-29.52-1.56-37.91,3.57s-10.98,8.21-10.99,10.03-.38,8.21,15.43,8.66,65.43-11.99,65.43-11.99l28.9-7.76s-10.33,1.37-17.55-.37c-4.99-1.2-12.41-4.3-14.13-6.48-2.04-2.58-4.36-5.5-5.77-9.22s-1.09-6.12-1.09-6.12Z"/>
      <path class="cls-3" d="m125.72,9.68s26.06-1.79,45.41,5.47c19.35,7.26,29.6,19.45,26.65,35.01-3.4,17.92-23.82,27.14-44.93,24.99s-53.23-15.63-71.6-23.99c-18.37-8.35-51.55-16.18-61.91-14.14-14.51,2.85-15.09,7.1-14.99,9.16s-.27,5.93,10.94,6.21c16.47.4,83.62-13.88,92.55-16.38,14.33-4.02,18.41-4.82,27.13-6.8,6.43-1.46,13.44-1.74,13.44-1.74,0,0-29.93,10.4-39.67,13.3-14.75,4.4-17.32,4.57-34.48,8.14-12.43,2.59-58.84,10.1-67.81,5.66-4.82-2.39-8.32-5.59-5.32-12.88s14.57-9.5,19.28-10.27c13.77-2.26,32.42,4.18,46.6,9.85,13.55,5.41,69.58,28.7,86.75,29.49,17.14.78,33.43-1.51,39.94-19.28,6.51-17.77-13.89-28.59-18.47-30.72-12-5.58-18.07-5.8-29.73-7.97-9.18-1.7-19.76-3.11-19.76-3.11Z"/>
      <g class="cls-2">
        <path class="cls-5" d="m92.42,0s5.37,12.51,11.11,15c11.63,5.05,14.63,5.2,20.69,5.48,5.65.26,24.29-2.64,24.29-2.64l.78,1.59s-52.08,15.15-60.01,16.91c-7.92,1.75-43.76,9.88-54.64,8.99s-18.2-5.03-17.41-11.78,11.02-14.31,22.29-16.64c11.27-2.33,22.65-2.59,40.74.98,18.09,3.57,31.71,10.69,38.01,13.67s18.28,10.14,18.28,10.14c0,0-15.23-4.22-21.41-6.95-6.18-2.73-26.15-13.26-45.05-15.07-18.9-1.82-29.52-1.56-37.91,3.57s-10.98,8.21-10.99,10.03-.38,8.21,15.43,8.66,65.43-11.99,65.43-11.99l28.9-7.76s-10.33,1.37-17.55-.37c-4.99-1.2-12.41-4.3-14.13-6.48-2.04-2.58-4.36-5.5-5.77-9.22s-1.09-6.12-1.09-6.12Z"/>
      </g>
    </g>
    <text class="cls-4" transform="translate(5 74.46) scale(.76 1)"><tspan x="0" y="0">Joy Danenberg</tspan></text>
  </g>
</svg>